<svg width="200" height="18" viewBox="0 0 200 18" fill="none" xmlns="http://www.w3.org/2000/svg">
<g clip-path="url(#clip0)">
<path d="M47.9078 17.362C54.0301 17.362 58.2141 16.4638 58.2141 12.0434C58.2141 7.85947 54.172 7.5049 47.6478 7.15033C42.8256 6.86667 41.8328 6.63029 41.8328 5.35383C41.8328 4.12464 42.8256 3.72279 47.0096 3.72279C51.4299 3.72279 53.2501 4.17192 53.2501 5.99206H57.5049C57.5049 1.90265 53.7228 0.342529 47.4823 0.342529C41.2891 0.342529 37.5779 1.5008 37.5779 5.14108C37.5779 8.85228 40.4382 9.98691 47.6478 10.3178C53.0137 10.5779 53.9592 10.8142 53.9592 12.1853C53.9592 13.4854 52.6118 13.9818 48.1442 13.9818C42.7547 13.9818 41.3364 13.1781 41.3364 11.4288H37.0815C37.0815 16.2038 41.1237 17.362 47.9078 17.362ZM65.5419 17.1256V10.6488H79.0157V17.1256H83.2706V0.578911H79.0157V7.05577H65.5419V0.578911H61.2871V17.1256H65.5419ZM90.953 17.1256V0.578911H86.6981V17.1256H90.953ZM98.6354 17.1256V12.7053H107.382C111.14 12.7053 113.717 10.3415 113.717 6.65392C113.717 2.96637 111.14 0.578911 107.382 0.578911H94.3805V17.1256H98.6354ZM106.372 9.13572L98.6354 9.13593V4.14828L106.314 4.14834C107.591 4.15044 109.462 4.22197 109.462 6.65392C109.462 9.02643 107.647 9.1311 106.372 9.13572ZM134.802 17.1256V13.5563H122.226L134.802 4.14828V0.578911H116.128V4.14828H128.68L116.128 13.5563V17.1256H134.802ZM156.502 17.1256V13.5563H143.926L156.502 4.14828V0.578911H137.828V4.14828H150.379L137.828 13.5563V17.1256H156.502ZM177.303 17.1256V13.7454H164.066V10.3888H177.303V7.31579H164.066V3.95917H177.303V0.578911H159.811V17.1256H177.303ZM184.631 17.1256V12.7053H191.486L194.157 17.1256H199.169L196.119 12.2089C198.341 11.3343 199.712 9.34868 199.712 6.65392C199.712 2.96637 197.136 0.578911 193.377 0.578911H180.376V17.1256H184.631ZM192.368 9.13572L184.631 9.13593V4.14828L192.31 4.14834C193.587 4.15044 195.457 4.22197 195.457 6.65392C195.457 9.02643 193.643 9.1311 192.368 9.13572Z" fill="#000E45"/>
<path d="M13.9578 0.174561H0V4.3619H13.9578V0.174561Z" fill="#0F69E7"/>
<path d="M12.8547 16.9238H26.8125V12.7365H12.8547V16.9238Z" fill="#2BE095"/>
<path fill-rule="evenodd" clip-rule="evenodd" d="M0 10.6428H26.8125V6.45549H0V10.6428Z" fill="#0F69E7"/>
</g>
<defs>
<clipPath id="clip0">
<rect width="200" height="17.4204" fill="white"/>
</clipPath>
</defs>
</svg>
